<?xml version="1.0" encoding="UTF-8" standalone="no"?>
<!DOCTYPE svg PUBLIC "-//W3C//DTD SVG 1.1//EN" "http://www.w3.org/Graphics/SVG/1.1/DTD/svg11.dtd">
<svg width="100%" height="100%" viewBox="0 0 168 168" version="1.1" xmlns="http://www.w3.org/2000/svg" xmlns:xlink="http://www.w3.org/1999/xlink" xml:space="preserve" xmlns:serif="http://www.serif.com/" style="fill-rule:evenodd;clip-rule:evenodd;stroke-linejoin:round;stroke-miterlimit:2;">
    <g>
        <g transform="matrix(2.36873,0,0,2.36873,-35.5486,-36.5486)">
            <circle cx="50.265" cy="50.265" r="33.735" style="fill:white;"/>
        </g>
        <path d="M5.621,83.833C5.621,127.029 40.636,162.044 83.832,162.044C127.028,162.044 162.043,127.029 162.043,83.833C162.043,40.637 127.028,5.622 83.832,5.622C40.636,5.622 5.621,40.637 5.621,83.833ZM83.832,0C130.132,0 167.664,37.533 167.664,83.833C167.664,130.133 130.132,167.665 83.832,167.665C37.531,167.665 0,130.133 0,83.833C0,37.533 37.531,0 83.832,0ZM83.832,11.242C123.923,11.242 156.423,43.741 156.423,83.833C156.423,123.925 123.923,156.424 83.832,156.424C43.74,156.424 11.241,123.925 11.241,83.833C11.241,43.741 43.74,11.242 83.832,11.242Z" style="fill:rgb(35,31,32);fill-rule:nonzero;"/>
        <path d="M58.276,42.86L58.276,84.356L69.497,84.356L69.497,42.899C69.497,39.949 66.703,37.557 63.63,37.557C60.556,37.557 58.276,39.911 58.276,42.86ZM69.497,90.561L58.276,90.561L58.276,112.86L52.089,112.86L52.065,42.535C52.065,36.362 57.2,31.358 63.572,31.358C69.944,31.358 75.108,36.362 75.108,42.535L75.089,113.108L69.497,113.108L69.497,90.561Z" style="fill:white;"/>
        <path d="M101.644,34.819C103.689,34.819 105.178,35.115 107.284,36.385C109.361,37.594 110.649,39.902 112.943,40.274C118.302,41.141 119.242,40.024 119.862,40.024C122.62,40.024 129.848,41.657 130.84,42.338C131.955,43.114 133.546,44.031 134.325,45.823L134.325,46.705C130.672,44.466 126.462,42.255 122.589,42.255C121.97,42.255 118.888,42.997 117.192,43.233C116.976,43.458 117.013,43.246 117.013,43.866C117.013,45.6 124.946,46.969 125.934,47.316C125.137,47.935 123.705,48.948 123.085,48.948C122.465,48.948 119.16,47.117 117.115,46.776C113.987,46.25 111.66,46.311 108.438,45.723C105.278,45.135 104.688,45.959 104.138,45.66C104.279,44.347 105.587,43.032 106.85,41.868C105.381,39.531 102.438,37.544 99.777,37.297L93.22,36.951C94.182,36.351 100.188,34.819 101.644,34.819Z" style="fill:white;fill-rule:nonzero;"/>
        <path d="M107.841,77.699C110.66,77.699 115.525,79.497 115.525,83.276C115.525,84.578 115.653,83.31 115.59,87.133C115.59,87.133 115.742,88.315 115.483,88.585L110.612,88.585C110.136,86.306 110.909,82.905 107.841,82.905C106.106,82.905 105.362,85.105 105.362,85.755C105.362,92.23 116.764,94.276 116.764,104.097C116.764,104.717 116.516,107.692 116.516,108.311C116.516,108.869 115.221,111.451 114.225,112.291C112.567,113.687 110.103,114.136 108.337,114.136C102.884,114.136 100.157,110.697 100.176,106.112L100.176,101.778C101.769,101.743 103.256,101.743 104.835,101.783C104.742,103.088 104.711,109.179 108.337,109.179C111.25,109.179 111.064,106.576 111.064,105.585C111.064,97.344 99.91,97.344 99.91,86.499C99.91,81.573 102.047,77.699 107.841,77.699Z" style="fill:white;fill-rule:nonzero;"/>
        <path d="M89.512,77.699C92.331,77.699 97.196,79.497 97.196,83.276C97.196,84.578 97.324,83.31 97.261,87.133C97.261,87.133 97.413,88.315 97.154,88.585L92.283,88.585C91.807,86.306 92.579,82.905 89.512,82.905C87.777,82.905 87.033,85.105 87.033,85.755C87.033,92.23 98.435,94.276 98.435,104.097C98.435,104.717 98.187,107.692 98.187,108.311C98.187,108.869 96.892,111.451 95.896,112.291C94.238,113.687 91.773,114.136 90.007,114.136C84.555,114.136 81.829,110.697 81.846,106.112L81.846,101.778C83.439,101.743 84.927,101.743 86.506,101.783C86.413,103.088 86.382,109.179 90.007,109.179C92.92,109.179 92.735,106.576 92.735,105.585C92.735,97.344 81.58,97.344 81.58,86.499C81.58,81.573 83.718,77.699 89.512,77.699Z" style="fill:white;fill-rule:nonzero;"/>
        <path d="M28.982,87.168L28.673,84.235L17.493,81.904L17.726,84.127L20.021,84.572L20.389,88.072L18.235,88.968L18.522,91.695L28.982,87.168ZM22.072,84.977L25.993,85.73L22.314,87.28L22.072,84.977Z" style="fill:white;"/>
        <path d="M21.797,96.783L30.258,94.673L29.644,92.211L19.091,94.843L20.763,101.55L22.855,101.029L21.797,96.783Z" style="fill:white;fill-rule:nonzero;"/>
        <path d="M34.857,107.125L34.02,105.155L25.99,106.119L32.286,101.069L31.227,98.574L22.491,105.83L23.563,108.354L34.857,107.125Z" style="fill:white;fill-rule:nonzero;"/>
        <path d="M37.997,115.701L39.746,114.522L35.401,108.081L26.384,114.163L30.728,120.604L32.477,119.424L29.551,115.087L31.549,113.74L33.854,117.157L35.549,116.013L33.244,112.595L35.071,111.363L37.997,115.701Z" style="fill:white;fill-rule:nonzero;"/>
        <path d="M44.227,123.243C45.152,121.469 44.58,119.879 43.283,118.487C42.601,117.757 41.801,117.224 40.774,117.099C39.768,116.974 38.849,117.29 38.106,117.982C36.367,119.603 37.247,121.384 38.276,123.069C38.626,123.653 39.342,124.676 38.682,125.293C38.02,125.909 37.164,125.385 36.666,124.852C35.898,124.029 35.626,123.155 36.245,122.146L34.251,120.797C33.031,122.606 33.647,124.567 35.043,126.064C35.788,126.863 36.75,127.592 37.843,127.765C38.892,127.936 39.98,127.615 40.757,126.891C41.545,126.155 41.839,125.145 41.662,124.096C41.514,123.193 40.866,122.172 40.399,121.393C40.059,120.865 39.549,120.039 40.128,119.499C40.743,118.926 41.433,119.41 41.898,119.909C42.558,120.616 42.691,121.293 42.234,122.153L44.227,123.243Z" style="fill:white;fill-rule:nonzero;"/>
        <path d="M53.286,127.297L46.879,122.468L45.581,124.19L47.784,125.85L42.536,132.814L44.562,134.341L49.81,127.377L51.988,129.018L53.286,127.297Z" style="fill:white;fill-rule:nonzero;"/>
        <path d="M58.501,130.321L55.922,128.892L47.599,136.713L49.554,137.797L51.234,136.172L54.312,137.878L53.811,140.156L56.21,141.486L58.501,130.321ZM52.743,134.725L55.608,131.944L54.767,135.847L52.743,134.725Z" style="fill:white;"/>
        <path d="M80.176,138.906C79.78,136.945 78.334,136.07 76.449,135.805C75.461,135.665 74.503,135.755 73.625,136.304C72.766,136.84 72.25,137.664 72.108,138.668C71.778,141.024 73.582,141.853 75.443,142.516C76.082,142.749 77.282,143.094 77.156,143.989C77.031,144.884 76.036,145.017 75.313,144.915C74.199,144.758 73.437,144.251 73.282,143.077L70.883,143.283C71.075,145.456 72.788,146.593 74.814,146.878C75.897,147.03 77.103,146.991 78.061,146.438C78.984,145.911 79.627,144.977 79.776,143.925C79.925,142.857 79.518,141.887 78.72,141.183C78.036,140.575 76.89,140.189 76.037,139.878C75.441,139.681 74.525,139.36 74.635,138.575C74.752,137.744 75.593,137.685 76.268,137.78C77.226,137.915 77.756,138.358 77.942,139.312L80.176,138.906Z" style="fill:white;fill-rule:nonzero;"/>
        <path d="M84.936,136.499L82.399,136.454L82.209,147.33L84.746,147.374L84.936,136.499Z" style="fill:white;fill-rule:nonzero;"/>
        <path d="M95.987,137.346L96.049,137.336L97.436,146.09L99.941,145.693L98.239,134.951L94.309,135.573L93.356,142.322L90.457,136.183L86.527,136.806L88.228,147.548L90.342,147.214L88.955,138.46L88.987,138.455L92.989,146.795L94.711,146.522L95.987,137.346Z" style="fill:white;"/>
        <path d="M107.254,133.996C105.955,132.473 104.266,132.408 102.491,133.09C101.558,133.448 100.764,133.991 100.263,134.897C99.77,135.782 99.718,136.753 100.082,137.7C100.934,139.92 102.915,139.771 104.863,139.448C105.535,139.343 106.752,139.062 107.077,139.906C107.4,140.75 106.594,141.348 105.913,141.609C104.863,142.013 103.951,141.938 103.245,140.986L101.248,142.33C102.468,144.138 104.519,144.302 106.427,143.569C107.449,143.176 108.485,142.558 109.054,141.609C109.606,140.701 109.716,139.572 109.335,138.58C108.95,137.574 108.122,136.923 107.083,136.694C106.191,136.493 105.001,136.711 104.104,136.852C103.487,136.97 102.531,137.134 102.246,136.393C101.946,135.609 102.653,135.151 103.289,134.907C104.192,134.56 104.871,134.69 105.496,135.435L107.254,133.996Z" style="fill:white;fill-rule:nonzero;"/>
        <path d="M111.604,127.249C112.043,126.996 112.194,126.432 111.94,125.993C111.695,125.567 111.137,125.395 110.712,125.64C110.272,125.894 110.135,126.449 110.388,126.889C110.627,127.301 111.164,127.503 111.604,127.249ZM109.379,128.534C109.819,128.279 109.969,127.717 109.716,127.278C109.47,126.852 108.913,126.68 108.487,126.925C108.048,127.179 107.91,127.734 108.164,128.173C108.402,128.585 108.94,128.787 109.379,128.534ZM112.591,128.546L110.036,130.021L112.454,141.184L114.39,140.066L113.863,137.79L116.911,136.03L118.606,137.633L120.981,136.261L112.591,128.546ZM113.399,135.75L112.492,131.863L115.404,134.593L113.399,135.75Z" style="fill:white;"/>
        <path d="M123.508,131.483L118.02,124.707L116.049,126.304L122.893,134.755L128.266,130.406L126.909,128.73L123.508,131.483Z" style="fill:white;fill-rule:nonzero;"/>
        <path d="M130.088,125.535L123.71,119.589L121.981,121.444L129.935,128.861L134.65,123.806L133.072,122.336L130.088,125.535Z" style="fill:white;fill-rule:nonzero;"/>
        <path d="M133.6,110.859C131.672,110.323 130.236,111.213 129.145,112.772C128.572,113.59 128.217,114.484 128.308,115.516C128.394,116.524 128.895,117.358 129.726,117.94C131.674,119.304 133.233,118.074 134.667,116.716C135.166,116.252 136.018,115.34 136.759,115.858C137.498,116.376 137.164,117.323 136.746,117.92C136.101,118.843 135.303,119.291 134.186,118.895L133.282,121.127C135.304,121.943 137.095,120.932 138.269,119.257C138.896,118.361 139.409,117.269 139.351,116.163C139.3,115.102 138.76,114.104 137.89,113.495C137.007,112.877 135.957,112.8 134.968,113.191C134.116,113.523 133.251,114.37 132.587,114.988C132.141,115.431 131.439,116.101 130.79,115.647C130.102,115.164 130.431,114.389 130.823,113.831C131.378,113.038 132.012,112.768 132.948,113.035L133.6,110.859Z" style="fill:white;fill-rule:nonzero;"/>
        <path d="M133.343,106.14L132.298,108.382L142.156,112.978L143.201,110.736L140.931,109.678L139.583,107.353L144.762,107.389L145.948,104.846L138.231,104.851L135.816,100.838L134.784,103.051L137.985,108.305L133.343,106.14Z" style="fill:white;fill-rule:nonzero;"/>
        <path d="M137.69,94.381L136.927,97.229L146.53,103.413L147.108,101.253L145.125,100.016L146.036,96.617L148.369,96.553L149.078,93.902L137.69,94.381ZM143.356,98.902L139.965,96.796L143.956,96.666L143.356,98.902Z" style="fill:white;"/>
        <path d="M145.737,88.601L145.879,86.974C145.98,85.822 146.083,84.828 145.39,83.828C144.782,82.963 143.771,82.509 142.744,82.419C141.623,82.321 140.648,82.728 139.92,83.588C139.226,84.434 139.142,85.398 139.049,86.456L138.693,90.531L149.528,91.479L149.748,88.952L145.737,88.601ZM143.763,88.428L140.888,88.177L141.011,86.771C141.052,86.297 141.098,85.776 141.433,85.407C141.732,85.083 142.189,84.948 142.616,84.986C142.963,85.016 143.301,85.157 143.548,85.417C143.983,85.901 143.94,86.407 143.887,87.007L143.763,88.428Z" style="fill:white;"/>
    </g>
</svg>
