<?xml version="1.0" encoding="UTF-8" standalone="no"?>
<!DOCTYPE svg PUBLIC "-//W3C//DTD SVG 1.1//EN" "http://www.w3.org/Graphics/SVG/1.1/DTD/svg11.dtd">
<svg width="100%" height="100%" viewBox="0 0 42 15" version="1.1" xmlns="http://www.w3.org/2000/svg" xmlns:xlink="http://www.w3.org/1999/xlink" xml:space="preserve" xmlns:serif="http://www.serif.com/" style="fill-rule:evenodd;clip-rule:evenodd;stroke-linejoin:round;stroke-miterlimit:2;">
    <g transform="matrix(1,0,0,1,-93.22,-34.819)">
        <path d="M101.644,34.819C103.689,34.819 105.178,35.115 107.284,36.385C109.361,37.594 110.649,39.902 112.943,40.274C118.302,41.141 119.242,40.024 119.862,40.024C122.62,40.024 129.848,41.657 130.84,42.338C131.955,43.114 133.546,44.031 134.325,45.823L134.325,46.705C130.672,44.466 126.462,42.255 122.589,42.255C121.97,42.255 118.888,42.997 117.192,43.233C116.976,43.458 117.013,43.246 117.013,43.866C117.013,45.6 124.946,46.969 125.934,47.316C125.137,47.935 123.705,48.948 123.085,48.948C122.465,48.948 119.16,47.117 117.115,46.776C113.987,46.25 111.66,46.311 108.438,45.723C105.278,45.135 104.688,45.959 104.138,45.66C104.279,44.347 105.587,43.032 106.85,41.868C105.381,39.531 102.438,37.544 99.777,37.297L93.22,36.951C94.182,36.351 100.188,34.819 101.644,34.819Z" style="fill-rule:nonzero;"/>
    </g>
</svg>
