<?xml version="1.0" encoding="UTF-8" standalone="no"?><!DOCTYPE svg PUBLIC "-//W3C//DTD SVG 1.1//EN" "http://www.w3.org/Graphics/SVG/1.1/DTD/svg11.dtd"><svg width="100%" height="100%" viewBox="0 0 129 129" version="1.1" xmlns="http://www.w3.org/2000/svg" xmlns:xlink="http://www.w3.org/1999/xlink" xml:space="preserve" xmlns:serif="http://www.serif.com/" style="fill-rule:evenodd;clip-rule:evenodd;stroke-linejoin:round;stroke-miterlimit:2;"><path d="M26.325,42.142c6.391,0 11.044,0.925 17.625,4.894c6.491,3.778 10.516,10.991 17.684,12.153c16.747,2.709 19.685,-0.781 21.622,-0.781c8.619,-0 31.207,5.103 34.307,7.231c3.484,2.425 8.456,5.291 10.89,10.891l0,2.756c-11.415,-6.997 -24.572,-13.906 -36.675,-13.906c-1.934,-0 -11.565,2.318 -16.865,3.056c-0.675,0.703 -0.56,0.041 -0.56,1.978c0,5.419 24.791,9.697 27.878,10.781c-2.49,1.935 -6.965,5.1 -8.903,5.1c-1.937,0 -12.265,-5.722 -18.656,-6.787c-9.775,-1.644 -17.047,-1.453 -27.116,-3.291c-9.875,-1.837 -11.718,0.738 -13.437,-0.197c0.44,-4.103 4.528,-8.212 8.475,-11.85c-4.591,-7.303 -13.788,-13.512 -22.103,-14.284l-20.491,-1.081c3.006,-1.875 21.775,-6.663 26.325,-6.663Z" style="fill-rule:nonzero;"/></svg>